# xmcd
# 
# Track frame offsets:
#     150
#     37955
#     72532
#     99970
#     146700
#     175457
#     230325
# 
# Disc length: 3885
# 
# Revision: 0
# Processed by: cddbd v1.5.2PL0 Copyright (c) Steve Scherf et al.
# Submitted via: BonkEnc v1.0.8
# 
DISCID=5d0f2b07
DTITLE=70s Jazz Pioneers - Live At The Town Hall, NYC
DYEAR=1998
DGENRE=Contemporary Jazz
TTITLE0=Cantaloupe Island
TTITLE1=Sugar
TTITLE2=500 Miles High
TTITLE3=Softly, As In A Morning Sunrise
TTITLE4=Red Clay
TTITLE5=All Blues
TTITLE6=Footprints
EXTD=
EXTT0=
EXTT1=
EXTT2=
EXTT3=
EXTT4=
EXTT5=
EXTT6=
PLAYORDER=
